<svg id="my-svg" width="100%" xmlns="http://www.w3.org/2000/svg" xmlns:xlink="http://www.w3.org/1999/xlink" class="flowchart" style="max-width: 1875.61px; background-color: white;" viewBox="0 0 1875.609375 613.4579467773438" role="graphics-document document" aria-roledescription="flowchart-v2"><style>#my-svg{font-family:"trebuchet ms",verdana,arial,sans-serif;font-size:16px;fill:#333;}@keyframes edge-animation-frame{from{stroke-dashoffset:0;}}@keyframes dash{to{stroke-dashoffset:0;}}#my-svg .edge-animation-slow{stroke-dasharray:9,5!important;stroke-dashoffset:900;animation:dash 50s linear infinite;stroke-linecap:round;}#my-svg .edge-animation-fast{stroke-dasharray:9,5!important;stroke-dashoffset:900;animation:dash 20s linear infinite;stroke-linecap:round;}#my-svg .error-icon{fill:#552222;}#my-svg .error-text{fill:#552222;stroke:#552222;}#my-svg .edge-thickness-normal{stroke-width:1px;}#my-svg .edge-thickness-thick{stroke-width:3.5px;}#my-svg .edge-pattern-solid{stroke-dasharray:0;}#my-svg .edge-thickness-invisible{stroke-width:0;fill:none;}#my-svg .edge-pattern-dashed{stroke-dasharray:3;}#my-svg .edge-pattern-dotted{stroke-dasharray:2;}#my-svg .marker{fill:#333333;stroke:#333333;}#my-svg .marker.cross{stroke:#333333;}#my-svg svg{font-family:"trebuchet ms",verdana,arial,sans-serif;font-size:16px;}#my-svg p{margin:0;}#my-svg .label{font-family:"trebuchet ms",verdana,arial,sans-serif;color:#333;}#my-svg .cluster-label text{fill:#333;}#my-svg .cluster-label span{color:#333;}#my-svg .cluster-label span p{background-color:transparent;}#my-svg .label text,#my-svg span{fill:#333;color:#333;}#my-svg .node rect,#my-svg .node circle,#my-svg .node ellipse,#my-svg .node polygon,#my-svg .node path{fill:#ECECFF;stroke:#9370DB;stroke-width:1px;}#my-svg .rough-node .label text,#my-svg .node .label text,#my-svg .image-shape .label,#my-svg .icon-shape .label{text-anchor:middle;}#my-svg .node .katex path{fill:#000;stroke:#000;stroke-width:1px;}#my-svg .rough-node .label,#my-svg .node .label,#my-svg .image-shape .label,#my-svg .icon-shape .label{text-align:center;}#my-svg .node.clickable{cursor:pointer;}#my-svg .root .anchor path{fill:#333333!important;stroke-width:0;stroke:#333333;}#my-svg .arrowheadPath{fill:#333333;}#my-svg .edgePath .path{stroke:#333333;stroke-width:1px;}#my-svg .flowchart-link{stroke:#333333;fill:none;}#my-svg .edgeLabel{background-color:rgba(232,232,232, 0.8);text-align:center;}#my-svg .edgeLabel p{background-color:rgba(232,232,232, 0.8);}#my-svg .edgeLabel rect{opacity:0.5;background-color:rgba(232,232,232, 0.8);fill:rgba(232,232,232, 0.8);}#my-svg .labelBkg{background-color:rgba(232, 232, 232, 0.5);}#my-svg .cluster rect{fill:#ffffde;stroke:#aaaa33;stroke-width:1px;}#my-svg .cluster text{fill:#333;}#my-svg .cluster span{color:#333;}#my-svg div.mermaidTooltip{position:absolute;text-align:center;max-width:200px;padding:2px;font-family:"trebuchet ms",verdana,arial,sans-serif;font-size:12px;background:hsl(80, 100%, 96.2745098039%);border:1px solid #aaaa33;border-radius:2px;pointer-events:none;z-index:100;}#my-svg .flowchartTitleText{text-anchor:middle;font-size:18px;fill:#333;}#my-svg rect.text{fill:none;stroke-width:0;}#my-svg .icon-shape,#my-svg .image-shape{background-color:rgba(232,232,232, 0.8);text-align:center;}#my-svg .icon-shape p,#my-svg .image-shape p{background-color:rgba(232,232,232, 0.8);padding:2px;}#my-svg .icon-shape .label rect,#my-svg .image-shape .label rect{opacity:0.5;background-color:rgba(232,232,232, 0.8);fill:rgba(232,232,232, 0.8);}#my-svg .label-icon{display:inline-block;height:1em;overflow:visible;vertical-align:-0.125em;}#my-svg .node .label-icon path{fill:currentColor;stroke:revert;stroke-width:revert;}#my-svg .node .neo-node{stroke:#9370DB;}#my-svg [data-look="neo"].node rect,#my-svg [data-look="neo"].cluster rect,#my-svg [data-look="neo"].node polygon{stroke:#9370DB;filter:drop-shadow(1px 2px 2px rgba(185, 185, 185, 1));}#my-svg [data-look="neo"].node path{stroke:#9370DB;stroke-width:1px;}#my-svg [data-look="neo"].node .outer-path{filter:drop-shadow(1px 2px 2px rgba(185, 185, 185, 1));}#my-svg [data-look="neo"].node .neo-line path{stroke:#9370DB;filter:none;}#my-svg [data-look="neo"].node circle{stroke:#9370DB;filter:drop-shadow(1px 2px 2px rgba(185, 185, 185, 1));}#my-svg [data-look="neo"].node circle .state-start{fill:#000000;}#my-svg [data-look="neo"].icon-shape .icon{fill:#9370DB;filter:drop-shadow(1px 2px 2px rgba(185, 185, 185, 1));}#my-svg [data-look="neo"].icon-shape .icon-neo path{stroke:#9370DB;filter:drop-shadow(1px 2px 2px rgba(185, 185, 185, 1));}#my-svg :root{--mermaid-font-family:"trebuchet ms",verdana,arial,sans-serif;}#my-svg .manager&gt;*{fill:rgb(232, 245, 233)!important;stroke:rgb(56, 142, 60)!important;}#my-svg .manager span{fill:rgb(232, 245, 233)!important;stroke:rgb(56, 142, 60)!important;}#my-svg .futures&gt;*{fill:rgb(255, 249, 196)!important;stroke:rgb(249, 168, 37)!important;stroke-width:2px!important;}#my-svg .futures span{fill:rgb(255, 249, 196)!important;stroke:rgb(249, 168, 37)!important;stroke-width:2px!important;}#my-svg .endpoint&gt;*{fill:rgb(255, 255, 255)!important;stroke:rgb(0, 0, 0)!important;stroke-width:2px!important;}#my-svg .endpoint span{fill:rgb(255, 255, 255)!important;stroke:rgb(0, 0, 0)!important;stroke-width:2px!important;}#my-svg .jsonl&gt;*{fill:rgb(255, 235, 238)!important;stroke:rgb(198, 40, 40)!important;}#my-svg .jsonl span{fill:rgb(255, 235, 238)!important;stroke:rgb(198, 40, 40)!important;}</style><g><marker id="my-svg_flowchart-v2-pointEnd" class="marker flowchart-v2" viewBox="0 0 10 10" refX="5" refY="5" markerUnits="userSpaceOnUse" markerWidth="8" markerHeight="8" orient="auto"><path d="M 0 0 L 10 5 L 0 10 z" class="arrowMarkerPath" style="stroke-width: 1; stroke-dasharray: 1, 0;"/></marker><marker id="my-svg_flowchart-v2-pointStart" class="marker flowchart-v2" viewBox="0 0 10 10" refX="4.5" refY="5" markerUnits="userSpaceOnUse" markerWidth="8" markerHeight="8" orient="auto"><path d="M 0 5 L 10 10 L 10 0 z" class="arrowMarkerPath" style="stroke-width: 1; stroke-dasharray: 1, 0;"/></marker><marker id="my-svg_flowchart-v2-pointEnd-margin" class="marker flowchart-v2" viewBox="0 0 11.5 14" refX="11.5" refY="7" markerUnits="userSpaceOnUse" markerWidth="10.5" markerHeight="14" orient="auto"><path d="M 0 0 L 11.5 7 L 0 14 z" class="arrowMarkerPath" style="stroke-width: 0; stroke-dasharray: 1, 0;"/></marker><marker id="my-svg_flowchart-v2-pointStart-margin" class="marker flowchart-v2" viewBox="0 0 11.5 14" refX="1" refY="7" markerUnits="userSpaceOnUse" markerWidth="11.5" markerHeight="14" orient="auto"><polygon points="0,7 11.5,14 11.5,0" class="arrowMarkerPath" style="stroke-width: 0; stroke-dasharray: 1, 0;"/></marker><marker id="my-svg_flowchart-v2-circleEnd" class="marker flowchart-v2" viewBox="0 0 10 10" refX="11" refY="5" markerUnits="userSpaceOnUse" markerWidth="11" markerHeight="11" orient="auto"><circle cx="5" cy="5" r="5" class="arrowMarkerPath" style="stroke-width: 1; stroke-dasharray: 1, 0;"/></marker><marker id="my-svg_flowchart-v2-circleStart" class="marker flowchart-v2" viewBox="0 0 10 10" refX="-1" refY="5" markerUnits="userSpaceOnUse" markerWidth="11" markerHeight="11" orient="auto"><circle cx="5" cy="5" r="5" class="arrowMarkerPath" style="stroke-width: 1; stroke-dasharray: 1, 0;"/></marker><marker id="my-svg_flowchart-v2-circleEnd-margin" class="marker flowchart-v2" viewBox="0 0 10 10" refY="5" refX="12.25" markerUnits="userSpaceOnUse" markerWidth="14" markerHeight="14" orient="auto"><circle cx="5" cy="5" r="5" class="arrowMarkerPath" style="stroke-width: 0; stroke-dasharray: 1, 0;"/></marker><marker id="my-svg_flowchart-v2-circleStart-margin" class="marker flowchart-v2" viewBox="0 0 10 10" refX="-2" refY="5" markerUnits="userSpaceOnUse" markerWidth="14" markerHeight="14" orient="auto"><circle cx="5" cy="5" r="5" class="arrowMarkerPath" style="stroke-width: 0; stroke-dasharray: 1, 0;"/></marker><marker id="my-svg_flowchart-v2-crossEnd" class="marker cross flowchart-v2" viewBox="0 0 11 11" refX="12" refY="5.2" markerUnits="userSpaceOnUse" markerWidth="11" markerHeight="11" orient="auto"><path d="M 1,1 l 9,9 M 10,1 l -9,9" class="arrowMarkerPath" style="stroke-width: 2; stroke-dasharray: 1, 0;"/></marker><marker id="my-svg_flowchart-v2-crossStart" class="marker cross flowchart-v2" viewBox="0 0 11 11" refX="-1" refY="5.2" markerUnits="userSpaceOnUse" markerWidth="11" markerHeight="11" orient="auto"><path d="M 1,1 l 9,9 M 10,1 l -9,9" class="arrowMarkerPath" style="stroke-width: 2; stroke-dasharray: 1, 0;"/></marker><marker id="my-svg_flowchart-v2-crossEnd-margin" class="marker cross flowchart-v2" viewBox="0 0 15 15" refX="17.7" refY="7.5" markerUnits="userSpaceOnUse" markerWidth="12" markerHeight="12" orient="auto"><path d="M 1,1 L 14,14 M 1,14 L 14,1" class="arrowMarkerPath" style="stroke-width: 2.5;"/></marker><marker id="my-svg_flowchart-v2-crossStart-margin" class="marker cross flowchart-v2" viewBox="0 0 15 15" refX="-3.5" refY="7.5" markerUnits="userSpaceOnUse" markerWidth="12" markerHeight="12" orient="auto"><path d="M 1,1 L 14,14 M 1,14 L 14,1" class="arrowMarkerPath" style="stroke-width: 2.5; stroke-dasharray: 1, 0;"/></marker><g class="root"><g class="clusters"/><g class="edgePaths"><path d="M250.266,410.605L254.432,410.605C258.599,410.605,266.932,410.605,274.599,410.605C282.266,410.605,289.266,410.605,292.766,410.605L296.266,410.605" id="my-svg-L_PM_RG_0" class="edge-thickness-normal edge-pattern-solid edge-thickness-normal edge-pattern-solid flowchart-link" style=";" data-edge="true" data-et="edge" data-id="L_PM_RG_0" data-points="W3sieCI6MjUwLjI2NTYyNSwieSI6NDEwLjYwNTM3OTEwNDYxNDI2fSx7IngiOjI3NS4yNjU2MjUsInkiOjQxMC42MDUzNzkxMDQ2MTQyNn0seyJ4IjozMDAuMjY1NjI1LCJ5Ijo0MTAuNjA1Mzc5MTA0NjE0MjZ9XQ==" data-look="classic" marker-end="url(#my-svg_flowchart-v2-pointEnd)"/><path d="M538.554,335.605L555.462,323.895C572.37,312.185,606.185,288.765,635.715,277.055C665.245,265.345,690.49,265.345,703.112,265.345L715.734,265.345" id="my-svg-L_RG_MP_0" class="edge-thickness-normal edge-pattern-solid edge-thickness-normal edge-pattern-solid flowchart-link" style=";" data-edge="true" data-et="edge" data-id="L_RG_MP_0" data-points="W3sieCI6NTM4LjU1NDQ0MTUxMjQzOTksInkiOjMzNS42MDUzNzkxMDQ2MTQyNn0seyJ4Ijo2NDAsInkiOjI2NS4zNDQ5NjY4ODg0Mjc3M30seyJ4Ijo3MTkuNzM0Mzc1LCJ5IjoyNjUuMzQ0OTY2ODg4NDI3NzN9XQ==" data-look="classic" marker-end="url(#my-svg_flowchart-v2-pointEnd)"/><path d="M979.734,265.345L1000.568,265.345C1021.401,265.345,1063.068,265.345,1104.068,265.345C1145.068,265.345,1185.401,265.345,1205.568,265.345L1225.734,265.345" id="my-svg-L_MP_EX_0" class="edge-thickness-normal edge-pattern-solid edge-thickness-normal edge-pattern-solid flowchart-link" style=";" data-edge="true" data-et="edge" data-id="L_MP_EX_0" data-points="W3sieCI6OTc5LjczNDM3NSwieSI6MjY1LjM0NDk2Njg4ODQyNzczfSx7IngiOjExMDQuNzM0Mzc1LCJ5IjoyNjUuMzQ0OTY2ODg4NDI3NzN9LHsieCI6MTIyOS43MzQzNzUsInkiOjI2NS4zNDQ5NjY4ODg0Mjc3M31d" data-look="classic" marker-end="url(#my-svg_flowchart-v2-pointEnd)"/><path d="M1434.646,190.345L1463.268,163.204C1491.889,136.063,1549.132,81.782,1604.913,54.722C1660.693,27.663,1715.012,27.825,1742.171,27.907L1769.33,27.988" id="my-svg-L_EX_END2_0" class="edge-thickness-normal edge-pattern-solid edge-thickness-normal edge-pattern-solid flowchart-link" style=";" data-edge="true" data-et="edge" data-id="L_EX_END2_0" data-points="W3sieCI6MTQzNC42NDYyMjIxMzk1NTU0LCJ5IjoxOTAuMzQ0OTY2ODg4NDI3NzN9LHsieCI6MTYwNi4zNzUsInkiOjI3LjV9LHsieCI6MTc3My4zMzAzMzE4MDIzNywieSI6Mjh9XQ==" data-look="classic" marker-end="url(#my-svg_flowchart-v2-pointEnd)"/><path d="M1481.375,200.424L1502.208,189.675C1523.042,178.925,1564.708,157.426,1605.865,146.676C1647.021,135.927,1687.667,135.927,1707.99,135.927L1728.313,135.927" id="my-svg-L_EX_J0_0" class="edge-thickness-normal edge-pattern-dotted edge-thickness-normal edge-pattern-solid flowchart-link" style=";" data-edge="true" data-et="edge" data-id="L_EX_J0_0" data-points="W3sieCI6MTQ4MS4zNzUsInkiOjIwMC40MjQxNjExMzA2NjQyM30seyJ4IjoxNjA2LjM3NSwieSI6MTM1LjkyNjYyMDQ4MzM5ODQ0fSx7IngiOjE3MzIuMzEyNSwieSI6MTM1LjkyNjYyMDQ4MzM5ODQ0fV0=" data-look="classic" marker-end="url(#my-svg_flowchart-v2-pointEnd)"/><path d="M1481.375,264.504L1502.208,264.365C1523.042,264.226,1564.708,263.948,1605.996,263.808C1647.284,263.669,1688.193,263.669,1708.647,263.669L1729.102,263.669" id="my-svg-L_EX_J1_0" class="edge-thickness-normal edge-pattern-dotted edge-thickness-normal edge-pattern-solid flowchart-link" style=";" data-edge="true" data-et="edge" data-id="L_EX_J1_0" data-points="W3sieCI6MTQ4MS4zNzUsInkiOjI2NC41MDQzNTMxNDg4MjQ3fSx7IngiOjE2MDYuMzc1LCJ5IjoyNjMuNjY5MjE5OTcwNzAzMX0seyJ4IjoxNzMzLjEwMTU2MjUsInkiOjI2My42NjkyMTk5NzA3MDMxfV0=" data-look="classic" marker-end="url(#my-svg_flowchart-v2-pointEnd)"/><path d="M1481.375,334.669L1502.208,346.148C1523.042,357.627,1564.708,380.584,1605.708,392.063C1646.708,403.542,1687.042,403.542,1707.208,403.542L1727.375,403.542" id="my-svg-L_EX_J2_0" class="edge-thickness-normal edge-pattern-dotted edge-thickness-normal edge-pattern-solid flowchart-link" style=";" data-edge="true" data-et="edge" data-id="L_EX_J2_0" data-points="W3sieCI6MTQ4MS4zNzUsInkiOjMzNC42NjkyMzk3OTI3NTE3NH0seyJ4IjoxNjA2LjM3NSwieSI6NDAzLjU0MTUzODIzODUyNTR9LHsieCI6MTczMS4zNzUsInkiOjQwMy41NDE1MzgyMzg1MjU0fV0=" data-look="classic" marker-end="url(#my-svg_flowchart-v2-pointEnd)"/><path d="M1434.862,340.345L1463.448,367.378C1492.033,394.41,1549.204,448.476,1599.618,481.536C1650.032,514.596,1693.69,526.651,1715.519,532.679L1737.347,538.706" id="my-svg-L_EX_J3_0" class="edge-thickness-normal edge-pattern-dotted edge-thickness-normal edge-pattern-solid flowchart-link" style=";" data-edge="true" data-et="edge" data-id="L_EX_J3_0" data-points="W3sieCI6MTQzNC44NjI0MjUwODgzOTI3LCJ5IjozNDAuMzQ0OTY2ODg4NDI3NzN9LHsieCI6MTYwNi4zNzUsInkiOjUwMi41NDE1MzgyMzg1MjU0fSx7IngiOjE3NDEuMjAzMTI1LCJ5Ijo1MzkuNzcwNzkzNDU0OTEzOX1d" data-look="classic" marker-end="url(#my-svg_flowchart-v2-pointEnd)"/><path d="M527.81,485.605L546.508,499.982C565.207,514.359,602.603,543.112,656.257,557.489C709.911,571.866,779.823,571.866,857.279,571.866C934.734,571.866,1019.734,571.866,1104.038,571.866C1188.341,571.866,1271.948,571.866,1355.555,571.866C1439.161,571.866,1522.768,571.866,1586.379,570.059C1649.989,568.252,1693.603,564.639,1715.41,562.832L1737.217,561.025" id="my-svg-L_RG_J3_0" class="edge-thickness-normal edge-pattern-dotted edge-thickness-normal edge-pattern-solid flowchart-link" style=";" data-edge="true" data-et="edge" data-id="L_RG_J3_0" data-points="W3sieCI6NTI3LjgxMDE5ODQ1NjIwNjksInkiOjQ4NS42MDUzNzkxMDQ2MTQyNn0seyJ4Ijo2NDAsInkiOjU3MS44NjU3OTEzMjA4MDA4fSx7IngiOjg0OS43MzQzNzUsInkiOjU3MS44NjU3OTEzMjA4MDA4fSx7IngiOjExMDQuNzM0Mzc1LCJ5Ijo1NzEuODY1NzkxMzIwODAwOH0seyJ4IjoxMzU1LjU1NDY4NzUsInkiOjU3MS44NjU3OTEzMjA4MDA4fSx7IngiOjE2MDYuMzc1LCJ5Ijo1NzEuODY1NzkxMzIwODAwOH0seyJ4IjoxNzQxLjIwMzEyNSwieSI6NTYwLjY5NTExMjg5NTI5ODJ9XQ==" data-look="classic" marker-end="url(#my-svg_flowchart-v2-pointEnd)"/></g><g class="edgeLabels"><g class="edgeLabel"><g class="label" data-id="L_PM_RG_0" transform="translate(0, 0)"><foreignObject width="0" height="0"><div xmlns="http://www.w3.org/1999/xhtml" class="labelBkg" style="display: table-cell; white-space: nowrap; line-height: 1.5; max-width: 200px; text-align: center;"><span class="edgeLabel"></span></div></foreignObject></g></g><g class="edgeLabel" transform="translate(640, 265.34496688842773)"><g class="label" data-id="L_RG_MP_0" transform="translate(-54.734375, -12)"><foreignObject width="109.46875" height="24"><div xmlns="http://www.w3.org/1999/xhtml" class="labelBkg" style="display: table-cell; white-space: nowrap; line-height: 1.5; max-width: 200px; text-align: center;"><span class="edgeLabel"><p>intent OR None</p></span></div></foreignObject></g></g><g class="edgeLabel"><g class="label" data-id="L_MP_EX_0" transform="translate(0, 0)"><foreignObject width="0" height="0"><div xmlns="http://www.w3.org/1999/xhtml" class="labelBkg" style="display: table-cell; white-space: nowrap; line-height: 1.5; max-width: 200px; text-align: center;"><span class="edgeLabel"></span></div></foreignObject></g></g><g class="edgeLabel"><g class="label" data-id="L_EX_END2_0" transform="translate(0, 0)"><foreignObject width="0" height="0"><div xmlns="http://www.w3.org/1999/xhtml" class="labelBkg" style="display: table-cell; white-space: nowrap; line-height: 1.5; max-width: 200px; text-align: center;"><span class="edgeLabel"></span></div></foreignObject></g></g><g class="edgeLabel" transform="translate(1606.375, 135.92662048339844)"><g class="label" data-id="L_EX_J0_0" transform="translate(-100, -24)"><foreignObject width="200" height="48"><div xmlns="http://www.w3.org/1999/xhtml" class="labelBkg" style="display: table; white-space: break-spaces; line-height: 1.5; max-width: 200px; text-align: center; width: 200px;"><span class="edgeLabel"><p>write-ahead BEFORE exchange call</p></span></div></foreignObject></g></g><g class="edgeLabel" transform="translate(1606.375, 263.6692199707031)"><g class="label" data-id="L_EX_J1_0" transform="translate(-26.375, -12)"><foreignObject width="52.75" height="24"><div xmlns="http://www.w3.org/1999/xhtml" class="labelBkg" style="display: table-cell; white-space: nowrap; line-height: 1.5; max-width: 200px; text-align: center;"><span class="edgeLabel"><p>success</p></span></div></foreignObject></g></g><g class="edgeLabel" transform="translate(1606.375, 403.5415382385254)"><g class="label" data-id="L_EX_J2_0" transform="translate(-21.4296875, -12)"><foreignObject width="42.859375" height="24"><div xmlns="http://www.w3.org/1999/xhtml" class="labelBkg" style="display: table-cell; white-space: nowrap; line-height: 1.5; max-width: 200px; text-align: center;"><span class="edgeLabel"><p>naked</p></span></div></foreignObject></g></g><g class="edgeLabel" transform="translate(1571.43227, 469.49679)"><g class="label" data-id="L_EX_J3_0" transform="translate(-34.828125, -12)"><foreignObject width="69.65625" height="24"><div xmlns="http://www.w3.org/1999/xhtml" class="labelBkg" style="display: table-cell; white-space: nowrap; line-height: 1.5; max-width: 200px; text-align: center;"><span class="edgeLabel"><p>skip / fail</p></span></div></foreignObject></g></g><g class="edgeLabel" transform="translate(1104.734375, 571.8657913208008)"><g class="label" data-id="L_RG_J3_0" transform="translate(-100, -24)"><foreignObject width="200" height="48"><div xmlns="http://www.w3.org/1999/xhtml" class="labelBkg" style="display: table; white-space: break-spaces; line-height: 1.5; max-width: 200px; text-align: center; width: 200px;"><span class="edgeLabel"><p>reject (incl. dangling-intent rule 7.5)</p></span></div></foreignObject></g></g></g><g class="nodes"><g class="node default manager" id="my-svg-flowchart-PM-0" data-look="classic" transform="translate(129.1328125, 410.60537910461426)"><rect class="basic label-container" style="fill:#e8f5e9 !important;stroke:#388e3c !important" x="-121.1328125" y="-63" width="242.265625" height="126"/><g class="label" style="" transform="translate(-91.1328125, -48)"><rect/><foreignObject width="182.265625" height="96"><div xmlns="http://www.w3.org/1999/xhtml" style="display: table-cell; white-space: nowrap; line-height: 1.5; max-width: 200px; text-align: center;"><span class="nodeLabel"><p>Portfolio Manager<br />writes:<br />final_decision_structured<br />final_trade_decision</p></span></div></foreignObject></g></g><g class="node default futures" id="my-svg-flowchart-RG-1" data-look="classic" transform="translate(430.265625, 410.60537910461426)"><rect class="basic label-container" style="fill:#fff9c4 !important;stroke:#f9a825 !important;stroke-width:2px !important" x="-130" y="-75" width="260" height="150"/><g class="label" style="" transform="translate(-100, -60)"><rect/><foreignObject width="200" height="120"><div xmlns="http://www.w3.org/1999/xhtml" style="display: table; white-space: break-spaces; line-height: 1.5; max-width: 200px; text-align: center; width: 200px;"><span class="nodeLabel"><p>Risk Gate<br />reads: final_decision_structured<br />writes: execution_intent<br />OR rejection_reason</p></span></div></foreignObject></g></g><g class="node default futures" id="my-svg-flowchart-MP-3" data-look="classic" transform="translate(849.734375, 265.34496688842773)"><rect class="basic label-container" style="fill:#fff9c4 !important;stroke:#f9a825 !important;stroke-width:2px !important" x="-130" y="-75" width="260" height="150"/><g class="label" style="" transform="translate(-100, -60)"><rect/><foreignObject width="200" height="120"><div xmlns="http://www.w3.org/1999/xhtml" style="display: table; white-space: break-spaces; line-height: 1.5; max-width: 200px; text-align: center; width: 200px;"><span class="nodeLabel"><p>Mark Price<br />reads: execution_intent<br />fetch fapi mainnet OR reuse<br />writes: mark_price</p></span></div></foreignObject></g></g><g class="node default futures" id="my-svg-flowchart-EX-5" data-look="classic" transform="translate(1355.5546875, 265.34496688842773)"><rect class="basic label-container" style="fill:#fff9c4 !important;stroke:#f9a825 !important;stroke-width:2px !important" x="-125.8203125" y="-75" width="251.640625" height="150"/><g class="label" style="" transform="translate(-95.8203125, -60)"><rect/><foreignObject width="191.640625" height="120"><div xmlns="http://www.w3.org/1999/xhtml" style="display: table-cell; white-space: nowrap; line-height: 1.5; max-width: 200px; text-align: center;"><span class="nodeLabel"><p>Executor<br />reads: intent + mark_price<br />dryrun OR testnet adapter<br />writes: execution_result<br />appends JSONL events</p></span></div></foreignObject></g></g><g class="node default endpoint" id="my-svg-flowchart-END2-7" data-look="classic" transform="translate(1799.4921875, 27.5)"><g class="basic label-container outer-path"><path d="M-7.171875 -19.5 C-2.0013664021579185 -19.5, 3.169142195684163 -19.5, 7.171875 -19.5 C7.171875 -19.5, 7.171874999999999 -19.5, 7.171874999999999 -19.5 C7.579022957591919 -19.48694355746545, 7.9861709151838385 -19.473887114930903, 8.4212442896239 -19.45993515863156 C8.687573099847967 -19.4342427386165, 8.953901910072034 -19.408550318601442, 9.665479652847864 -19.3399052695533 C10.043668513903942 -19.278762627396173, 10.42185737496002 -19.217619985239047, 10.899468259676757 -19.140403561325776 C11.261131199176369 -19.05785635545623, 11.622794138675982 -18.975309149586682, 12.11813938623539 -18.862249829261074 C12.358645437516603 -18.790868895682834, 12.599151488797816 -18.719487962104598, 13.316485251460602 -18.50658706670804 C13.57791608489093 -18.410378103365545, 13.839346918321256 -18.314169140023054, 14.489581595147794 -18.074876768247425 C14.807107457108245 -17.934317488227567, 15.124633319068696 -17.793758208207713, 15.632607912792382 -17.568892924097174 C15.913512334115394 -17.422345267420827, 16.194416755438407 -17.275797610744483, 16.740867264076783 -16.990714730406097 C17.156300661583437 -16.73887656347993, 17.57173405909009 -16.487038396553768, 17.809805573605697 -16.342718045390892 C18.03521005724302 -16.185485635208327, 18.260614540880344 -16.028253225025765, 18.835030344578712 -15.627565626425154 C19.152237087965496 -15.374601689800144, 19.46944383135228 -15.121637753175136, 19.81232870850187 -14.848196188198123 C20.119241312712248 -14.569466281516778, 20.426153916922626 -14.290736374835433, 20.737684736767985 -14.007812326905688 C20.985339076638894 -13.752088888189531, 21.232993416509803 -13.496365449473377, 21.607295942968648 -13.10986736009568 C21.783908781863314 -12.902407869974782, 21.96052162075798 -12.694948379853882, 22.417588908126582 -12.158051136245305 C22.713000058185642 -11.762227107675574, 23.008411208244706 -11.366403079105844, 23.165233964640635 -11.156274872382312 C23.411146821910005 -10.778486686768355, 23.657059679179373 -10.400698501154396, 23.847158878604247 -10.108655082055241 C24.040688439285795 -9.765023750072112, 24.23421799996734 -9.421392418088983, 24.4605614742735 -9.019496659696287 C24.63283893057166 -8.66175883554611, 24.805116386869813 -8.304021011395934, 25.00292114880834 -7.893275190886684 C25.158468778815475 -7.5090695374602205, 25.31401640882261 -7.124863884033758, 25.472009229970325 -6.734618561215508 C25.56847601128537 -6.4440759857889205, 25.664942792600417 -6.153533410362332, 25.86589813421488 -5.548287939305138 C25.964888689684855 -5.1707940485199915, 26.063879245154833 -4.793300157734845, 26.18296928754556 -4.339158212148133 C26.265450284677524 -3.915635724240427, 26.347931281809483 -3.492113236332721, 26.421919776581777 -3.1121979531509023 C26.45660444473232 -2.8431905162377067, 26.491289112882868 -2.574183079324511, 26.581767702509367 -1.872449005199798 C26.613299460210218 -1.3813164270323328, 26.64483121791107 -0.8901838488648677, 26.661856215913414 -0.6250057626472757 C26.661856215913414 -0.2757006244738802, 26.661856215913414 0.07360451369951526, 26.661856215913414 0.625005762647271 C26.639333717533777 0.9758118547435983, 26.61681121915414 1.3266179468399257, 26.581767702509367 1.8724490051997846 C26.53615041552533 2.2262476748957774, 26.49053312854129 2.58004634459177, 26.421919776581777 3.1121979531508885 C26.3357179067093 3.5548263361744183, 26.24951603683682 3.997454719197948, 26.18296928754556 4.339158212148129 C26.075046961480847 4.75071281526488, 25.96712463541613 5.16226741838163, 25.865898134214884 5.548287939305125 C25.746174881780725 5.90887530032702, 25.626451629346562 6.269462661348915, 25.47200922997033 6.734618561215495 C25.35208883350835 7.03082425897972, 25.232168437046372 7.327029956743945, 25.002921148808344 7.893275190886679 C24.808263123955143 8.297486744508863, 24.613605099101942 8.701698298131046, 24.460561474273504 9.019496659696284 C24.278362316379997 9.343009714201555, 24.09616315848649 9.666522768706827, 23.84715887860425 10.108655082055236 C23.637920490092014 10.43010143518446, 23.428682101579778 10.751547788313683, 23.16523396464064 11.156274872382301 C22.92771007212813 11.474535249477308, 22.690186179615615 11.792795626572316, 22.417588908126582 12.158051136245302 C22.101458346290958 12.529396082515984, 21.78532778445533 12.900741028786666, 21.60729594296866 13.10986736009567 C21.347832590253955 13.37778457411103, 21.08836923753925 13.64570178812639, 20.73768473676799 14.007812326905684 C20.398474266230604 14.315874301230505, 20.05926379569322 14.623936275555323, 19.812328708501887 14.848196188198111 C19.456214003465536 15.132188188854307, 19.100099298429186 15.416180189510506, 18.835030344578715 15.627565626425152 C18.527429730447032 15.842134499027443, 18.21982911631535 16.056703371629734, 17.809805573605708 16.34271804539089 C17.56306572544536 16.492293191349987, 17.31632587728501 16.641868337309088, 16.740867264076787 16.990714730406093 C16.418705173188464 17.158786486867864, 16.09654308230014 17.326858243329635, 15.632607912792386 17.56889292409717 C15.373194020610727 17.683727758926292, 15.113780128429067 17.798562593755413, 14.489581595147804 18.07487676824742 C14.043555631084155 18.23901844604166, 13.597529667020506 18.403160123835896, 13.316485251460616 18.506587066708033 C13.04964399387275 18.585784151281768, 12.782802736284884 18.664981235855503, 12.118139386235413 18.86224982926107 C11.686949424714165 18.960666124200834, 11.255759463192916 19.059082419140598, 10.899468259676766 19.140403561325773 C10.581326108471234 19.191838317103453, 10.263183957265705 19.24327307288113, 9.665479652847878 19.3399052695533 C9.363328678708388 19.369053410638823, 9.061177704568898 19.39820155172435, 8.4212442896239 19.45993515863156 C7.964150107974332 19.474593279357208, 7.507055926324763 19.48925140008286, 7.1718750000000036 19.5 C7.171875000000002 19.5, 7.171875000000001 19.5, 7.171875 19.5 C4.211217084636722 19.5, 1.2505591692734432 19.5, -7.1718749999999964 19.5 C-7.594761260400795 19.48643886072712, -8.017647520801594 19.472877721454235, -8.421244289623893 19.45993515863156 C-8.673673633984535 19.435583603371793, -8.926102978345178 19.411232048112023, -9.665479652847871 19.3399052695533 C-10.005652973842361 19.28490868509841, -10.345826294836852 19.229912100643528, -10.899468259676759 19.140403561325773 C-11.319916985702726 19.044438883294696, -11.740365711728693 18.948474205263615, -12.118139386235388 18.862249829261074 C-12.40067521405868 18.778394678623947, -12.683211041881972 18.694539527986816, -13.316485251460593 18.506587066708043 C-13.565048093600959 18.415113643110665, -13.813610935741323 18.323640219513283, -14.489581595147797 18.074876768247425 C-14.927599354936994 17.880979299323936, -15.365617114726192 17.687081830400448, -15.63260791279238 17.568892924097174 C-16.024724509637668 17.364325946685653, -16.416841106482956 17.159758969274137, -16.74086726407678 16.990714730406097 C-17.096142266540443 16.775344936084963, -17.451417269004107 16.559975141763832, -17.809805573605686 16.3427180453909 C-18.073322935405795 16.158899741281882, -18.3368402972059 15.975081437172864, -18.835030344578712 15.627565626425156 C-19.225799908007733 15.315937298405316, -19.616569471436755 15.004308970385477, -19.81232870850187 14.848196188198125 C-20.09646484992149 14.590151262391164, -20.38060099134111 14.332106336584202, -20.737684736767974 14.007812326905697 C-21.0481175483864 13.687264961901846, -21.358550360004827 13.366717596897995, -21.607295942968655 13.109867360095677 C-21.782380967893985 12.904202527198235, -21.95746599281932 12.698537694300793, -22.41758890812658 12.158051136245307 C-22.589509731308386 11.927692895490882, -22.761430554490193 11.697334654736455, -23.165233964640635 11.156274872382316 C-23.419850974696004 10.765114770696771, -23.674467984751374 10.373954669011228, -23.847158878604244 10.108655082055249 C-24.07620221893449 9.70196543814571, -24.305245559264737 9.29527579423617, -24.4605614742735 9.019496659696289 C-24.614713097544755 8.699397515657171, -24.76886472081601 8.379298371618052, -25.00292114880834 7.893275190886686 C-25.136568106693158 7.563164621023034, -25.27021506457798 7.2330540511593835, -25.472009229970325 6.73461856121551 C-25.616484279408823 6.299482731279843, -25.76095932884732 5.864346901344177, -25.86589813421488 5.5482879393051325 C-25.959221218480867 5.192406572518354, -26.052544302746853 4.836525205731574, -26.182969287545557 4.339158212148136 C-26.246672888545827 4.012053684772583, -26.3103764895461 3.684949157397031, -26.421919776581777 3.112197953150904 C-26.461881417052876 2.802263360975545, -26.501843057523974 2.492328768800186, -26.581767702509364 1.872449005199809 C-26.60967245941821 1.437809892030143, -26.63757721632706 1.003170778860477, -26.661856215913414 0.6250057626472781 C-26.661856215913414 0.3028710520105945, -26.661856215913414 -0.019263658626089142, -26.661856215913414 -0.6250057626472687 C-26.636030560852326 -1.0272611863172658, -26.61020490579124 -1.429516609987263, -26.581767702509367 -1.8724490051997822 C-26.5494201800472 -2.1233300016755394, -26.517072657585032 -2.3742109981512964, -26.421919776581777 -3.112197953150895 C-26.338321750279423 -3.5414561497643713, -26.25472372397707 -3.9707143463778474, -26.18296928754556 -4.339158212148126 C-26.1069546207314 -4.629035081675517, -26.03093995391724 -4.918911951202908, -25.865898134214884 -5.548287939305123 C-25.715858112915175 -6.0001845778289, -25.565818091615466 -6.452081216352679, -25.472009229970332 -6.734618561215485 C-25.331488709255954 -7.081706964159451, -25.190968188541575 -7.428795367103416, -25.002921148808344 -7.893275190886676 C-24.87752383067474 -8.153665405063892, -24.75212651254114 -8.414055619241108, -24.460561474273504 -9.019496659696282 C-24.31876522628158 -9.271270256433024, -24.176968978289658 -9.523043853169765, -23.847158878604247 -10.108655082055243 C-23.69829274248336 -10.337353443291667, -23.54942660636247 -10.56605180452809, -23.16523396464064 -11.156274872382308 C-22.926221225475825 -11.47653016835468, -22.68720848631101 -11.796785464327051, -22.417588908126586 -12.158051136245302 C-22.101228268444427 -12.529666345046323, -21.784867628762267 -12.901281553847344, -21.607295942968662 -13.10986736009567 C-21.38099535190549 -13.343541299992454, -21.154694760842318 -13.577215239889238, -20.737684736767996 -14.007812326905677 C-20.373931625846872 -14.338163277864327, -20.010178514925748 -14.668514228822975, -19.812328708501887 -14.848196188198107 C-19.572402496877473 -15.039530957263947, -19.33247628525306 -15.230865726329785, -18.83503034457872 -15.627565626425149 C-18.568793915256716 -15.813280634330907, -18.30255748593471 -15.998995642236666, -17.80980557360571 -16.342718045390885 C-17.528152832560405 -16.51345759218778, -17.246500091515095 -16.684197138984672, -16.74086726407679 -16.99071473040609 C-16.46326433763079 -17.13553999931981, -16.185661411184785 -17.280365268233528, -15.63260791279239 -17.56889292409717 C-15.244239699762137 -17.74081201147195, -14.855871486731886 -17.912731098846727, -14.489581595147806 -18.07487676824742 C-14.068288970065526 -18.229916348664034, -13.646996344983245 -18.38495592908065, -13.316485251460618 -18.506587066708033 C-12.952264166124548 -18.614685973000288, -12.588043080788479 -18.722784879292544, -12.118139386235413 -18.862249829261067 C-11.692963066154023 -18.959293549784864, -11.267786746072632 -19.05633727030866, -10.899468259676768 -19.140403561325773 C-10.626307930966407 -19.184566004881678, -10.353147602256044 -19.228728448437582, -9.66547965284788 -19.3399052695533 C-9.272671260872649 -19.37779902270594, -8.879862868897419 -19.41569277585858, -8.421244289623903 -19.45993515863156 C-7.97789203091765 -19.47415260263545, -7.534539772211398 -19.488370046639336, -7.171875000000006 -19.5 C-7.171875000000004 -19.5, -7.171875000000002 -19.5, -7.171875 -19.5" stroke="none" stroke-width="0" fill="#fff" style="fill:#fff !important;stroke:#000 !important;stroke-width:2px !important"/><path d="M-7.171875 -19.5 C-3.063536428429307 -19.5, 1.0448021431413856 -19.5, 7.171875 -19.5 M-7.171875 -19.5 C-3.259859289342067 -19.5, 0.6521564213158664 -19.5, 7.171875 -19.5 M7.171875 -19.5 C7.171875 -19.5, 7.171874999999999 -19.5, 7.171874999999999 -19.5 M7.171875 -19.5 C7.171875 -19.5, 7.171874999999999 -19.5, 7.171874999999999 -19.5 M7.171874999999999 -19.5 C7.642867965326789 -19.484896172334164, 8.11386093065358 -19.469792344668324, 8.4212442896239 -19.45993515863156 M7.171874999999999 -19.5 C7.604331134704858 -19.486131973484817, 8.036787269409718 -19.472263946969633, 8.4212442896239 -19.45993515863156 M8.4212442896239 -19.45993515863156 C8.857394314322645 -19.41786029029602, 9.293544339021391 -19.37578542196048, 9.665479652847864 -19.3399052695533 M8.4212442896239 -19.45993515863156 C8.741137674859317 -19.42907542848598, 9.061031060094734 -19.398215698340405, 9.665479652847864 -19.3399052695533 M9.665479652847864 -19.3399052695533 C10.123155611650986 -19.26591176986408, 10.580831570454107 -19.191918270174863, 10.899468259676757 -19.140403561325776 M9.665479652847864 -19.3399052695533 C9.998229770881704 -19.286108810985294, 10.330979888915543 -19.23231235241729, 10.899468259676757 -19.140403561325776 M10.899468259676757 -19.140403561325776 C11.178460788464122 -19.076725337226453, 11.457453317251488 -19.013047113127133, 12.11813938623539 -18.862249829261074 M10.899468259676757 -19.140403561325776 C11.187459955117088 -19.074671336162965, 11.475451650557421 -19.008939111000153, 12.11813938623539 -18.862249829261074 M12.11813938623539 -18.862249829261074 C12.373586608434648 -18.786434434582166, 12.629033830633905 -18.710619039903257, 13.316485251460602 -18.50658706670804 M12.11813938623539 -18.862249829261074 C12.528694218215112 -18.740399310175782, 12.939249050194833 -18.61854879109049, 13.316485251460602 -18.50658706670804 M13.316485251460602 -18.50658706670804 C13.707494482238083 -18.362692055332218, 14.098503713015564 -18.2187970439564, 14.489581595147794 -18.074876768247425 M13.316485251460602 -18.50658706670804 C13.60840597633851 -18.39915754146737, 13.900326701216418 -18.2917280162267, 14.489581595147794 -18.074876768247425 M14.489581595147794 -18.074876768247425 C14.8915429563538 -17.896940397401654, 15.293504317559808 -17.719004026555883, 15.632607912792382 -17.568892924097174 M14.489581595147794 -18.074876768247425 C14.76689203562699 -17.952119662369228, 15.044202476106186 -17.82936255649103, 15.632607912792382 -17.568892924097174 M15.632607912792382 -17.568892924097174 C16.011855452337475 -17.371039725636145, 16.391102991882565 -17.173186527175112, 16.740867264076783 -16.990714730406097 M15.632607912792382 -17.568892924097174 C15.887280899486148 -17.43603019006487, 16.141953886179913 -17.303167456032565, 16.740867264076783 -16.990714730406097 M16.740867264076783 -16.990714730406097 C17.12977561565417 -16.754956202200727, 17.518683967231556 -16.519197673995354, 17.809805573605697 -16.342718045390892 M16.740867264076783 -16.990714730406097 C16.95620879574686 -16.86017342842039, 17.171550327416938 -16.72963212643468, 17.809805573605697 -16.342718045390892 M17.809805573605697 -16.342718045390892 C18.160024640119843 -16.098420385329668, 18.510243706633986 -15.854122725268441, 18.835030344578712 -15.627565626425154 M17.809805573605697 -16.342718045390892 C18.17577956526659 -16.087430431567014, 18.541753556927482 -15.832142817743133, 18.835030344578712 -15.627565626425154 M18.835030344578712 -15.627565626425154 C19.17866704578657 -15.353524501768554, 19.522303746994425 -15.079483377111956, 19.81232870850187 -14.848196188198123 M18.835030344578712 -15.627565626425154 C19.057414933449664 -15.450219834703015, 19.279799522320616 -15.272874042980877, 19.81232870850187 -14.848196188198123 M19.81232870850187 -14.848196188198123 C20.036973795546427 -14.64417946392755, 20.261618882590984 -14.440162739656976, 20.737684736767985 -14.007812326905688 M19.81232870850187 -14.848196188198123 C20.053067028471656 -14.629564015588468, 20.293805348441442 -14.410931842978812, 20.737684736767985 -14.007812326905688 M20.737684736767985 -14.007812326905688 C21.053077825186456 -13.682143068859487, 21.36847091360493 -13.356473810813288, 21.607295942968648 -13.10986736009568 M20.737684736767985 -14.007812326905688 C21.04431888954439 -13.691187389031915, 21.35095304232079 -13.374562451158141, 21.607295942968648 -13.10986736009568 M21.607295942968648 -13.10986736009568 C21.785929623042183 -12.900034074936961, 21.964563303115717 -12.690200789778244, 22.417588908126582 -12.158051136245305 M21.607295942968648 -13.10986736009568 C21.800006407426253 -12.883498683007714, 21.992716871883854 -12.657130005919745, 22.417588908126582 -12.158051136245305 M22.417588908126582 -12.158051136245305 C22.603619001984406 -11.90878775816602, 22.789649095842226 -11.659524380086735, 23.165233964640635 -11.156274872382312 M22.417588908126582 -12.158051136245305 C22.635323818177547 -11.866306192835385, 22.85305872822851 -11.574561249425463, 23.165233964640635 -11.156274872382312 M23.165233964640635 -11.156274872382312 C23.341258667773115 -10.885853659119714, 23.517283370905595 -10.615432445857115, 23.847158878604247 -10.108655082055241 M23.165233964640635 -11.156274872382312 C23.338462100095196 -10.890149938056563, 23.51169023554976 -10.624025003730814, 23.847158878604247 -10.108655082055241 M23.847158878604247 -10.108655082055241 C23.97720210712709 -9.87775016150812, 24.10724533564994 -9.646845240960998, 24.4605614742735 -9.019496659696287 M23.847158878604247 -10.108655082055241 C24.033105148248975 -9.778488651199469, 24.219051417893702 -9.448322220343698, 24.4605614742735 -9.019496659696287 M24.4605614742735 -9.019496659696287 C24.609379363373588 -8.710473128787227, 24.758197252473675 -8.401449597878166, 25.00292114880834 -7.893275190886684 M24.4605614742735 -9.019496659696287 C24.579030751975104 -8.773492669712436, 24.69750002967671 -8.527488679728584, 25.00292114880834 -7.893275190886684 M25.00292114880834 -7.893275190886684 C25.120081502864508 -7.603886851226604, 25.237241856920672 -7.314498511566524, 25.472009229970325 -6.734618561215508 M25.00292114880834 -7.893275190886684 C25.17379868833993 -7.471204364551184, 25.344676227871517 -7.049133538215684, 25.472009229970325 -6.734618561215508 M25.472009229970325 -6.734618561215508 C25.561591533542284 -6.4648109358585355, 25.65117383711424 -6.195003310501563, 25.86589813421488 -5.548287939305138 M25.472009229970325 -6.734618561215508 C25.581819992391463 -6.403886040772035, 25.6916307548126 -6.073153520328562, 25.86589813421488 -5.548287939305138 M25.86589813421488 -5.548287939305138 C25.933543964606134 -5.290325070134946, 26.001189794997384 -5.032362200964755, 26.18296928754556 -4.339158212148133 M25.86589813421488 -5.548287939305138 C25.987260804100472 -5.08547948011752, 26.108623473986068 -4.622671020929903, 26.18296928754556 -4.339158212148133 M26.18296928754556 -4.339158212148133 C26.269486373426194 -3.894911261543666, 26.356003459306823 -3.4506643109391986, 26.421919776581777 -3.1121979531509023 M26.18296928754556 -4.339158212148133 C26.250598349388827 -3.991897272990242, 26.318227411232094 -3.6446363338323513, 26.421919776581777 -3.1121979531509023 M26.421919776581777 -3.1121979531509023 C26.476111680919708 -2.691896244507826, 26.53030358525764 -2.2715945358647494, 26.581767702509367 -1.872449005199798 M26.421919776581777 -3.1121979531509023 C26.47366500713334 -2.7108721632445145, 26.525410237684905 -2.3095463733381267, 26.581767702509367 -1.872449005199798 M26.581767702509367 -1.872449005199798 C26.605444490269488 -1.5036639242768244, 26.629121278029608 -1.1348788433538508, 26.661856215913414 -0.6250057626472757 M26.581767702509367 -1.872449005199798 C26.607615908225057 -1.4698423368817903, 26.633464113940747 -1.0672356685637827, 26.661856215913414 -0.6250057626472757 M26.661856215913414 -0.6250057626472757 C26.661856215913414 -0.24215909094682847, 26.661856215913414 0.14068758075361876, 26.661856215913414 0.625005762647271 M26.661856215913414 -0.6250057626472757 C26.661856215913414 -0.14372091049874358, 26.661856215913414 0.33756394164978853, 26.661856215913414 0.625005762647271 M26.661856215913414 0.625005762647271 C26.637013208693716 1.0119556530085851, 26.612170201474015 1.3989055433698994, 26.581767702509367 1.8724490051997846 M26.661856215913414 0.625005762647271 C26.644538394812617 0.8947448049857852, 26.62722057371182 1.1644838473242993, 26.581767702509367 1.8724490051997846 M26.581767702509367 1.8724490051997846 C26.521469975170945 2.3401062713035476, 26.46117224783252 2.80776353740731, 26.421919776581777 3.1121979531508885 M26.581767702509367 1.8724490051997846 C26.545186325333496 2.1561669427658483, 26.508604948157625 2.439884880331912, 26.421919776581777 3.1121979531508885 M26.421919776581777 3.1121979531508885 C26.35228762917662 3.469744313316824, 26.282655481771457 3.827290673482759, 26.18296928754556 4.339158212148129 M26.421919776581777 3.1121979531508885 C26.35234599660431 3.469444608911579, 26.282772216626842 3.8266912646722693, 26.18296928754556 4.339158212148129 M26.18296928754556 4.339158212148129 C26.093164358523662 4.681623328211075, 26.003359429501764 5.024088444274022, 25.865898134214884 5.548287939305125 M26.18296928754556 4.339158212148129 C26.10244250535213 4.646241733179848, 26.021915723158703 4.953325254211568, 25.865898134214884 5.548287939305125 M25.865898134214884 5.548287939305125 C25.762430167311116 5.859916970237505, 25.65896220040735 6.171546001169884, 25.47200922997033 6.734618561215495 M25.865898134214884 5.548287939305125 C25.767077359528958 5.845920367706897, 25.668256584843032 6.143552796108669, 25.47200922997033 6.734618561215495 M25.47200922997033 6.734618561215495 C25.33787769008706 7.065926057984079, 25.203746150203788 7.397233554752663, 25.002921148808344 7.893275190886679 M25.47200922997033 6.734618561215495 C25.324765406096848 7.098313652948663, 25.177521582223367 7.462008744681832, 25.002921148808344 7.893275190886679 M25.002921148808344 7.893275190886679 C24.87712244681803 8.154498887230591, 24.75132374482772 8.415722583574505, 24.460561474273504 9.019496659696284 M25.002921148808344 7.893275190886679 C24.83822978108709 8.235260339790626, 24.673538413365836 8.577245488694574, 24.460561474273504 9.019496659696284 M24.460561474273504 9.019496659696284 C24.30567850320508 9.294507058429762, 24.150795532136655 9.569517457163242, 23.84715887860425 10.108655082055236 M24.460561474273504 9.019496659696284 C24.299583017353164 9.305330210794715, 24.13860456043282 9.591163761893146, 23.84715887860425 10.108655082055236 M23.84715887860425 10.108655082055236 C23.636180063224497 10.43277519822302, 23.425201247844743 10.756895314390801, 23.16523396464064 11.156274872382301 M23.84715887860425 10.108655082055236 C23.5923784033817 10.500066310134109, 23.337597928159155 10.891477538212982, 23.16523396464064 11.156274872382301 M23.16523396464064 11.156274872382301 C22.98901589206452 11.392391035837637, 22.812797819488395 11.628507199292974, 22.417588908126582 12.158051136245302 M23.16523396464064 11.156274872382301 C22.88164949440254 11.536252227424642, 22.598065024164438 11.916229582466983, 22.417588908126582 12.158051136245302 M22.417588908126582 12.158051136245302 C22.13076293140727 12.494973249360234, 21.843936954687955 12.831895362475164, 21.60729594296866 13.10986736009567 M22.417588908126582 12.158051136245302 C22.140175635118677 12.4839165519828, 21.86276236211077 12.809781967720296, 21.60729594296866 13.10986736009567 M21.60729594296866 13.10986736009567 C21.388439430761885 13.335854677402985, 21.16958291855511 13.561841994710297, 20.73768473676799 14.007812326905684 M21.60729594296866 13.10986736009567 C21.337873822338516 13.388067819613772, 21.068451701708373 13.666268279131872, 20.73768473676799 14.007812326905684 M20.73768473676799 14.007812326905684 C20.422863434182723 14.293724704198413, 20.108042131597454 14.57963708149114, 19.812328708501887 14.848196188198111 M20.73768473676799 14.007812326905684 C20.53613583421594 14.190853707511716, 20.334586931663893 14.373895088117749, 19.812328708501887 14.848196188198111 M19.812328708501887 14.848196188198111 C19.561600546626952 15.048145225136773, 19.310872384752017 15.248094262075433, 18.835030344578715 15.627565626425152 M19.812328708501887 14.848196188198111 C19.5241131016085 15.07804046495618, 19.23589749471511 15.307884741714249, 18.835030344578715 15.627565626425152 M18.835030344578715 15.627565626425152 C18.431088961581757 15.909337648863191, 18.027147578584795 16.19110967130123, 17.809805573605708 16.34271804539089 M18.835030344578715 15.627565626425152 C18.592937774825206 15.796438923066766, 18.350845205071693 15.965312219708379, 17.809805573605708 16.34271804539089 M17.809805573605708 16.34271804539089 C17.544594566535498 16.503490516429725, 17.27938355946529 16.664262987468557, 16.740867264076787 16.990714730406093 M17.809805573605708 16.34271804539089 C17.54234916613986 16.504851691344996, 17.274892758674014 16.666985337299106, 16.740867264076787 16.990714730406093 M16.740867264076787 16.990714730406093 C16.427386263273117 17.154257567731204, 16.113905262469448 17.317800405056314, 15.632607912792386 17.56889292409717 M16.740867264076787 16.990714730406093 C16.449591520686848 17.142673099161605, 16.158315777296913 17.294631467917117, 15.632607912792386 17.56889292409717 M15.632607912792386 17.56889292409717 C15.386035858943503 17.67804305803597, 15.13946380509462 17.787193191974772, 14.489581595147804 18.07487676824742 M15.632607912792386 17.56889292409717 C15.25931553477929 17.734138386518612, 14.886023156766193 17.89938384894005, 14.489581595147804 18.07487676824742 M14.489581595147804 18.07487676824742 C14.218467973080214 18.174649087315142, 13.947354351012624 18.274421406382867, 13.316485251460616 18.506587066708033 M14.489581595147804 18.07487676824742 C14.1485162048849 18.200391984638078, 13.807450814621996 18.32590720102873, 13.316485251460616 18.506587066708033 M13.316485251460616 18.506587066708033 C12.846385305790822 18.64611026297786, 12.376285360121027 18.785633459247688, 12.118139386235413 18.86224982926107 M13.316485251460616 18.506587066708033 C13.070471711160158 18.579602594117784, 12.8244581708597 18.65261812152754, 12.118139386235413 18.86224982926107 M12.118139386235413 18.86224982926107 C11.632075860758466 18.973190657090253, 11.14601233528152 19.084131484919435, 10.899468259676766 19.140403561325773 M12.118139386235413 18.86224982926107 C11.687919807681938 18.960444640620782, 11.257700229128464 19.05863945198049, 10.899468259676766 19.140403561325773 M10.899468259676766 19.140403561325773 C10.45567266855684 19.21215299081183, 10.011877077436914 19.283902420297892, 9.665479652847878 19.3399052695533 M10.899468259676766 19.140403561325773 C10.431383828257 19.21607982214874, 9.963299396837234 19.29175608297171, 9.665479652847878 19.3399052695533 M9.665479652847878 19.3399052695533 C9.294203278883524 19.375721854824473, 8.92292690491917 19.411538440095644, 8.4212442896239 19.45993515863156 M9.665479652847878 19.3399052695533 C9.295722486331412 19.375575298709087, 8.925965319814948 19.411245327864876, 8.4212442896239 19.45993515863156 M8.4212442896239 19.45993515863156 C8.076975186258561 19.470975198697328, 7.732706082893223 19.482015238763093, 7.1718750000000036 19.5 M8.4212442896239 19.45993515863156 C8.067370501232089 19.47128320225174, 7.713496712840279 19.48263124587192, 7.1718750000000036 19.5 M7.1718750000000036 19.5 C7.171875000000003 19.5, 7.171875000000001 19.5, 7.171875 19.5 M7.1718750000000036 19.5 C7.171875000000003 19.5, 7.171875000000001 19.5, 7.171875 19.5 M7.171875 19.5 C2.742539758224015 19.5, -1.68679548355197 19.5, -7.1718749999999964 19.5 M7.171875 19.5 C4.117552405858481 19.5, 1.0632298117169627 19.5, -7.1718749999999964 19.5 M-7.1718749999999964 19.5 C-7.555674421022445 19.487692299588065, -7.939473842044893 19.475384599176127, -8.421244289623893 19.45993515863156 M-7.1718749999999964 19.5 C-7.525776476283303 19.48865106848303, -7.87967795256661 19.47730213696606, -8.421244289623893 19.45993515863156 M-8.421244289623893 19.45993515863156 C-8.760351262651913 19.42722191677935, -9.099458235679935 19.39450867492714, -9.665479652847871 19.3399052695533 M-8.421244289623893 19.45993515863156 C-8.8616530174559 19.417449458326594, -9.302061745287908 19.37496375802163, -9.665479652847871 19.3399052695533 M-9.665479652847871 19.3399052695533 C-9.950200309810338 19.29387384177728, -10.234920966772805 19.24784241400126, -10.899468259676759 19.140403561325773 M-9.665479652847871 19.3399052695533 C-10.12235756595446 19.266040791703357, -10.579235479061047 19.192176313853416, -10.899468259676759 19.140403561325773 M-10.899468259676759 19.140403561325773 C-11.294739134948243 19.050185563428574, -11.690010010219728 18.959967565531375, -12.118139386235388 18.862249829261074 M-10.899468259676759 19.140403561325773 C-11.145021614653574 19.084357610437706, -11.390574969630391 19.02831165954964, -12.118139386235388 18.862249829261074 M-12.118139386235388 18.862249829261074 C-12.48451108838377 18.753512631187743, -12.850882790532152 18.644775433114415, -13.316485251460593 18.506587066708043 M-12.118139386235388 18.862249829261074 C-12.35935798470733 18.790657415416863, -12.600576583179272 18.719065001572652, -13.316485251460593 18.506587066708043 M-13.316485251460593 18.506587066708043 C-13.741016357534766 18.35035569535022, -14.165547463608942 18.1941243239924, -14.489581595147797 18.074876768247425 M-13.316485251460593 18.506587066708043 C-13.756888085288669 18.344514752820142, -14.197290919116744 18.18244243893224, -14.489581595147797 18.074876768247425 M-14.489581595147797 18.074876768247425 C-14.75932443776086 17.955469613459748, -15.029067280373921 17.836062458672075, -15.63260791279238 17.568892924097174 M-14.489581595147797 18.074876768247425 C-14.91908377879911 17.884748892274587, -15.348585962450423 17.69462101630175, -15.63260791279238 17.568892924097174 M-15.63260791279238 17.568892924097174 C-16.039487031705583 17.35662434837867, -16.446366150618783 17.144355772660166, -16.74086726407678 16.990714730406097 M-15.63260791279238 17.568892924097174 C-15.953943830328303 17.401252181744162, -16.275279747864225 17.233611439391147, -16.74086726407678 16.990714730406097 M-16.74086726407678 16.990714730406097 C-17.005175905500142 16.83048927872527, -17.269484546923504 16.670263827044444, -17.809805573605686 16.3427180453909 M-16.74086726407678 16.990714730406097 C-17.06208128837247 16.795992901214913, -17.383295312668167 16.601271072023728, -17.809805573605686 16.3427180453909 M-17.809805573605686 16.3427180453909 C-18.17725088126582 16.086404105218193, -18.54469618892595 15.830090165045489, -18.835030344578712 15.627565626425156 M-17.809805573605686 16.3427180453909 C-18.215474464787487 16.05974098802574, -18.621143355969288 15.776763930660582, -18.835030344578712 15.627565626425156 M-18.835030344578712 15.627565626425156 C-19.19523236584177 15.340314099846216, -19.55543438710482 15.053062573267274, -19.81232870850187 14.848196188198125 M-18.835030344578712 15.627565626425156 C-19.182107201531576 15.350781069108303, -19.529184058484436 15.073996511791451, -19.81232870850187 14.848196188198125 M-19.81232870850187 14.848196188198125 C-20.065960084428465 14.617854883300062, -20.319591460355063 14.387513578401997, -20.737684736767974 14.007812326905697 M-19.81232870850187 14.848196188198125 C-20.006554730530738 14.671805253930446, -20.200780752559602 14.495414319662766, -20.737684736767974 14.007812326905697 M-20.737684736767974 14.007812326905697 C-20.919852914747718 13.819708726856051, -21.102021092727462 13.631605126806404, -21.607295942968655 13.109867360095677 M-20.737684736767974 14.007812326905697 C-21.046651891675893 13.6887783727881, -21.35561904658381 13.369744418670502, -21.607295942968655 13.109867360095677 M-21.607295942968655 13.109867360095677 C-21.88109418537718 12.78824836500128, -22.154892427785704 12.466629369906883, -22.41758890812658 12.158051136245307 M-21.607295942968655 13.109867360095677 C-21.88337298976299 12.785571551702064, -22.159450036557324 12.461275743308454, -22.41758890812658 12.158051136245307 M-22.41758890812658 12.158051136245307 C-22.664564858177574 11.82712586314889, -22.911540808228573 11.496200590052473, -23.165233964640635 11.156274872382316 M-22.41758890812658 12.158051136245307 C-22.60240985708349 11.910407902177878, -22.787230806040398 11.66276466811045, -23.165233964640635 11.156274872382316 M-23.165233964640635 11.156274872382316 C-23.361160965596742 10.855278385147358, -23.557087966552846 10.554281897912402, -23.847158878604244 10.108655082055249 M-23.165233964640635 11.156274872382316 C-23.39102895892577 10.80939312671476, -23.616823953210908 10.462511381047202, -23.847158878604244 10.108655082055249 M-23.847158878604244 10.108655082055249 C-24.086420167198277 9.683822436323899, -24.32568145579231 9.258989790592548, -24.4605614742735 9.019496659696289 M-23.847158878604244 10.108655082055249 C-23.986052994391176 9.86203451492122, -24.12494711017811 9.615413947787191, -24.4605614742735 9.019496659696289 M-24.4605614742735 9.019496659696289 C-24.654966635375843 8.615810183063187, -24.84937179647818 8.212123706430084, -25.00292114880834 7.893275190886686 M-24.4605614742735 9.019496659696289 C-24.647616368066437 8.63107317040169, -24.834671261859373 8.242649681107089, -25.00292114880834 7.893275190886686 M-25.00292114880834 7.893275190886686 C-25.143563725719943 7.545885306775783, -25.28420630263155 7.19849542266488, -25.472009229970325 6.73461856121551 M-25.00292114880834 7.893275190886686 C-25.16290044011355 7.4981232483736395, -25.32287973141876 7.102971305860593, -25.472009229970325 6.73461856121551 M-25.472009229970325 6.73461856121551 C-25.587718642840628 6.3861202454414725, -25.703428055710926 6.037621929667434, -25.86589813421488 5.5482879393051325 M-25.472009229970325 6.73461856121551 C-25.562653341672764 6.461612938945676, -25.653297453375203 6.18860731667584, -25.86589813421488 5.5482879393051325 M-25.86589813421488 5.5482879393051325 C-25.95279630111627 5.216907567006367, -26.039694468017657 4.885527194707602, -26.182969287545557 4.339158212148136 M-25.86589813421488 5.5482879393051325 C-25.989328473548923 5.077594560376961, -26.11275881288297 4.60690118144879, -26.182969287545557 4.339158212148136 M-26.182969287545557 4.339158212148136 C-26.256110558930757 3.9635932419983213, -26.329251830315958 3.588028271848507, -26.421919776581777 3.112197953150904 M-26.182969287545557 4.339158212148136 C-26.27766184152494 3.852931960742385, -26.37235439550432 3.3667057093366344, -26.421919776581777 3.112197953150904 M-26.421919776581777 3.112197953150904 C-26.479955935180023 2.6620809675986927, -26.537992093778268 2.2119639820464814, -26.581767702509364 1.872449005199809 M-26.421919776581777 3.112197953150904 C-26.48360294851908 2.633795452325208, -26.54528612045638 2.155392951499512, -26.581767702509364 1.872449005199809 M-26.581767702509364 1.872449005199809 C-26.60323042449491 1.5381497858775404, -26.62469314648046 1.2038505665552717, -26.661856215913414 0.6250057626472781 M-26.581767702509364 1.872449005199809 C-26.601011449741367 1.5727121087881406, -26.620255196973375 1.2729752123764722, -26.661856215913414 0.6250057626472781 M-26.661856215913414 0.6250057626472781 C-26.661856215913414 0.2597008313492209, -26.661856215913414 -0.10560409994883635, -26.661856215913414 -0.6250057626472687 M-26.661856215913414 0.6250057626472781 C-26.661856215913414 0.18573383221382606, -26.661856215913414 -0.25353809821962603, -26.661856215913414 -0.6250057626472687 M-26.661856215913414 -0.6250057626472687 C-26.637098288029105 -1.0106304736850622, -26.6123403601448 -1.3962551847228557, -26.581767702509367 -1.8724490051997822 M-26.661856215913414 -0.6250057626472687 C-26.639942806535352 -0.9663248018962489, -26.618029397157294 -1.3076438411452291, -26.581767702509367 -1.8724490051997822 M-26.581767702509367 -1.8724490051997822 C-26.535396941753174 -2.2320914686823885, -26.48902618099698 -2.5917339321649946, -26.421919776581777 -3.112197953150895 M-26.581767702509367 -1.8724490051997822 C-26.53936687931266 -2.201301416923853, -26.496966056115955 -2.530153828647924, -26.421919776581777 -3.112197953150895 M-26.421919776581777 -3.112197953150895 C-26.349565182728426 -3.4837235004390195, -26.27721058887508 -3.8552490477271437, -26.18296928754556 -4.339158212148126 M-26.421919776581777 -3.112197953150895 C-26.331483060162707 -3.576571378156043, -26.241046343743633 -4.0409448031611905, -26.18296928754556 -4.339158212148126 M-26.18296928754556 -4.339158212148126 C-26.106479351189385 -4.630847490422343, -26.02998941483321 -4.922536768696561, -25.865898134214884 -5.548287939305123 M-26.18296928754556 -4.339158212148126 C-26.068064489930258 -4.777340005509583, -25.953159692314955 -5.2155217988710385, -25.865898134214884 -5.548287939305123 M-25.865898134214884 -5.548287939305123 C-25.756130621897416 -5.878890197327314, -25.646363109579948 -6.209492455349505, -25.472009229970332 -6.734618561215485 M-25.865898134214884 -5.548287939305123 C-25.75991290057026 -5.867498576588974, -25.653927666925636 -6.186709213872827, -25.472009229970332 -6.734618561215485 M-25.472009229970332 -6.734618561215485 C-25.364244577572563 -7.00079933612579, -25.256479925174794 -7.266980111036094, -25.002921148808344 -7.893275190886676 M-25.472009229970332 -6.734618561215485 C-25.370139519788946 -6.986238714880369, -25.268269809607563 -7.237858868545253, -25.002921148808344 -7.893275190886676 M-25.002921148808344 -7.893275190886676 C-24.816969538246976 -8.279407688944442, -24.631017927685612 -8.665540187002208, -24.460561474273504 -9.019496659696282 M-25.002921148808344 -7.893275190886676 C-24.86776497163216 -8.173929884671944, -24.732608794455977 -8.454584578457212, -24.460561474273504 -9.019496659696282 M-24.460561474273504 -9.019496659696282 C-24.288161534060066 -9.325610210932199, -24.11576159384663 -9.631723762168118, -23.847158878604247 -10.108655082055243 M-24.460561474273504 -9.019496659696282 C-24.26946329586431 -9.358810826250698, -24.078365117455117 -9.698124992805115, -23.847158878604247 -10.108655082055243 M-23.847158878604247 -10.108655082055243 C-23.681869995834813 -10.362583192268783, -23.516581113065378 -10.616511302482325, -23.16523396464064 -11.156274872382308 M-23.847158878604247 -10.108655082055243 C-23.648347846902023 -10.41408221498693, -23.4495368151998 -10.719509347918615, -23.16523396464064 -11.156274872382308 M-23.16523396464064 -11.156274872382308 C-22.913656830123347 -11.493365313487036, -22.662079695606053 -11.830455754591764, -22.417588908126586 -12.158051136245302 M-23.16523396464064 -11.156274872382308 C-22.910741185013 -11.497272012314172, -22.65624840538535 -11.838269152246035, -22.417588908126586 -12.158051136245302 M-22.417588908126586 -12.158051136245302 C-22.17719743721699 -12.440428636637908, -21.936805966307393 -12.722806137030513, -21.607295942968662 -13.10986736009567 M-22.417588908126586 -12.158051136245302 C-22.16532015612604 -12.454380366843775, -21.913051404125497 -12.750709597442249, -21.607295942968662 -13.10986736009567 M-21.607295942968662 -13.10986736009567 C-21.38465456438652 -13.33976286267886, -21.162013185804376 -13.56965836526205, -20.737684736767996 -14.007812326905677 M-21.607295942968662 -13.10986736009567 C-21.35928358217947 -13.365960484804017, -21.11127122139028 -13.622053609512363, -20.737684736767996 -14.007812326905677 M-20.737684736767996 -14.007812326905677 C-20.472216645557967 -14.248903423441828, -20.206748554347943 -14.489994519977978, -19.812328708501887 -14.848196188198107 M-20.737684736767996 -14.007812326905677 C-20.47242143396503 -14.248717440028937, -20.20715813116207 -14.489622553152197, -19.812328708501887 -14.848196188198107 M-19.812328708501887 -14.848196188198107 C-19.572170381792 -15.03971606286777, -19.332012055082114 -15.23123593753743, -18.83503034457872 -15.627565626425149 M-19.812328708501887 -14.848196188198107 C-19.595246339179628 -15.021313600928153, -19.378163969857365 -15.194431013658198, -18.83503034457872 -15.627565626425149 M-18.83503034457872 -15.627565626425149 C-18.483273760110876 -15.872935792452795, -18.131517175643033 -16.11830595848044, -17.80980557360571 -16.342718045390885 M-18.83503034457872 -15.627565626425149 C-18.520012349048045 -15.847308543198109, -18.20499435351737 -16.06705145997107, -17.80980557360571 -16.342718045390885 M-17.80980557360571 -16.342718045390885 C-17.452222228864333 -16.559487170366094, -17.09463888412295 -16.7762562953413, -16.74086726407679 -16.99071473040609 M-17.80980557360571 -16.342718045390885 C-17.4566569598616 -16.556798810374175, -17.103508346117493 -16.77087957535747, -16.74086726407679 -16.99071473040609 M-16.74086726407679 -16.99071473040609 C-16.310449889755745 -17.215263198893894, -15.880032515434698 -17.4398116673817, -15.63260791279239 -17.56889292409717 M-16.74086726407679 -16.99071473040609 C-16.402479839584213 -17.167251233016376, -16.06409241509164 -17.343787735626666, -15.63260791279239 -17.56889292409717 M-15.63260791279239 -17.56889292409717 C-15.257571861087339 -17.734910259137795, -14.882535809382288 -17.900927594178423, -14.489581595147806 -18.07487676824742 M-15.63260791279239 -17.56889292409717 C-15.260029065683982 -17.733822527553247, -14.887450218575577 -17.898752131009324, -14.489581595147806 -18.07487676824742 M-14.489581595147806 -18.07487676824742 C-14.199588727147542 -18.181596824336204, -13.909595859147277 -18.288316880424986, -13.316485251460618 -18.506587066708033 M-14.489581595147806 -18.07487676824742 C-14.115162629712867 -18.212666408618453, -13.740743664277927 -18.350456048989486, -13.316485251460618 -18.506587066708033 M-13.316485251460618 -18.506587066708033 C-13.040026584384176 -18.588638547935165, -12.763567917307732 -18.670690029162298, -12.118139386235413 -18.862249829261067 M-13.316485251460618 -18.506587066708033 C-13.067167647879307 -18.58058322275616, -12.817850044297995 -18.654579378804286, -12.118139386235413 -18.862249829261067 M-12.118139386235413 -18.862249829261067 C-11.708096793286629 -18.955839375323645, -11.298054200337843 -19.049428921386223, -10.899468259676768 -19.140403561325773 M-12.118139386235413 -18.862249829261067 C-11.835764755021042 -18.926699996169074, -11.553390123806672 -18.99115016307708, -10.899468259676768 -19.140403561325773 M-10.899468259676768 -19.140403561325773 C-10.632553783268197 -19.18355622391883, -10.365639306859626 -19.22670888651189, -9.66547965284788 -19.3399052695533 M-10.899468259676768 -19.140403561325773 C-10.49806856812467 -19.205298750554817, -10.096668876572576 -19.270193939783862, -9.66547965284788 -19.3399052695533 M-9.66547965284788 -19.3399052695533 C-9.296248185709409 -19.37552458512234, -8.927016718570936 -19.41114390069138, -8.421244289623903 -19.45993515863156 M-9.66547965284788 -19.3399052695533 C-9.235949802422898 -19.381341497638573, -8.806419951997915 -19.422777725723847, -8.421244289623903 -19.45993515863156 M-8.421244289623903 -19.45993515863156 C-7.930126174950038 -19.47568436066573, -7.439008060276173 -19.491433562699903, -7.171875000000006 -19.5 M-8.421244289623903 -19.45993515863156 C-7.994101577381302 -19.473632794030326, -7.5669588651387 -19.487330429429093, -7.171875000000006 -19.5 M-7.171875000000006 -19.5 C-7.171875000000004 -19.5, -7.171875000000003 -19.5, -7.171875 -19.5 M-7.171875000000006 -19.5 C-7.171875000000004 -19.5, -7.171875000000002 -19.5, -7.171875 -19.5" stroke="#000" stroke-width="2" fill="none" stroke-dasharray="0 0" style="fill:#fff !important;stroke:#000 !important;stroke-width:2px !important"/></g><g class="label" style="" transform="translate(-14.296875, -12)"><rect/><foreignObject width="28.59375" height="24"><div xmlns="http://www.w3.org/1999/xhtml" style="display: table-cell; white-space: nowrap; line-height: 1.5; max-width: 200px; text-align: center;"><span class="nodeLabel"><p>END</p></span></div></foreignObject></g></g><g class="node default jsonl" id="my-svg-flowchart-J0-9" data-look="classic" transform="translate(1799.4921875, 135.92662048339844)"><path d="M0,12.951081390445207 a67.1796875,12.951081390445207 0,0,0 134.359375,0 a67.1796875,12.951081390445207 0,0,0 -134.359375,0 l0,51.95108139044521 a67.1796875,12.951081390445207 0,0,0 134.359375,0 l0,-51.95108139044521" class="basic label-container outer-path" style="fill:#ffebee !important;stroke:#c62828 !important" transform="translate(-67.1796875, -38.926622085667816)"/><g class="label" style="" transform="translate(-59.6796875, -2)"><rect/><foreignObject width="119.359375" height="24"><div xmlns="http://www.w3.org/1999/xhtml" style="display: table-cell; white-space: nowrap; line-height: 1.5; max-width: 200px; text-align: center;"><span class="nodeLabel"><p>order_submitted</p></span></div></foreignObject></g></g><g class="node default jsonl" id="my-svg-flowchart-J1-11" data-look="classic" transform="translate(1799.4921875, 263.6692199707031)"><path d="M0,12.877318462843979 a66.390625,12.877318462843979 0,0,0 132.78125,0 a66.390625,12.877318462843979 0,0,0 -132.78125,0 l0,51.87731846284398 a66.390625,12.877318462843979 0,0,0 132.78125,0 l0,-51.87731846284398" class="basic label-container outer-path" style="fill:#ffebee !important;stroke:#c62828 !important" transform="translate(-66.390625, -38.81597769426597)"/><g class="label" style="" transform="translate(-58.890625, -2)"><rect/><foreignObject width="117.78125" height="24"><div xmlns="http://www.w3.org/1999/xhtml" style="display: table-cell; white-space: nowrap; line-height: 1.5; max-width: 200px; text-align: center;"><span class="nodeLabel"><p>position_opened</p></span></div></foreignObject></g></g><g class="node default jsonl" id="my-svg-flowchart-J2-13" data-look="classic" transform="translate(1799.4921875, 403.5415382385254)"><path d="M0,13.03756205514684 a68.1171875,13.03756205514684 0,0,0 136.234375,0 a68.1171875,13.03756205514684 0,0,0 -136.234375,0 l0,76.03756205514684 a68.1171875,13.03756205514684 0,0,0 136.234375,0 l0,-76.03756205514684" class="basic label-container outer-path" style="fill:#ffebee !important;stroke:#c62828 !important" transform="translate(-68.1171875, -51.05634308272026)"/><g class="label" style="" transform="translate(-60.6171875, -14)"><rect/><foreignObject width="121.234375" height="48"><div xmlns="http://www.w3.org/1999/xhtml" style="display: table-cell; white-space: nowrap; line-height: 1.5; max-width: 200px; text-align: center;"><span class="nodeLabel"><p>position_opened<br />+ position_naked</p></span></div></foreignObject></g></g><g class="node default jsonl" id="my-svg-flowchart-J3-15" data-look="classic" transform="translate(1799.4921875, 555.8657913208008)"><path d="M0,12.064226117327468 a58.2890625,12.064226117327468 0,0,0 116.578125,0 a58.2890625,12.064226117327468 0,0,0 -116.578125,0 l0,75.06422611732746 a58.2890625,12.064226117327468 0,0,0 116.578125,0 l0,-75.06422611732746" class="basic label-container outer-path" style="fill:#ffebee !important;stroke:#c62828 !important" transform="translate(-58.2890625, -49.596339175991204)"/><g class="label" style="" transform="translate(-50.7890625, -14)"><rect/><foreignObject width="101.578125" height="48"><div xmlns="http://www.w3.org/1999/xhtml" style="display: table-cell; white-space: nowrap; line-height: 1.5; max-width: 200px; text-align: center;"><span class="nodeLabel"><p>trade_skipped<br />intent_id</p></span></div></foreignObject></g></g></g></g></g><defs><filter id="my-svg-drop-shadow" height="130%" width="130%"><feDropShadow dx="4" dy="4" stdDeviation="0" flood-opacity="0.06" flood-color="#000000"/></filter></defs><defs><filter id="my-svg-drop-shadow-small" height="150%" width="150%"><feDropShadow dx="2" dy="2" stdDeviation="0" flood-opacity="0.06" flood-color="#000000"/></filter></defs></svg>